<svg width="16" height="27" viewBox="0 0 16 27" fill="none" xmlns="http://www.w3.org/2000/svg">
<path opacity="0.4" d="M0.976562 13.4238C0.976562 13.79 1.1084 14.1123 1.38672 14.3906L13.0029 25.7432C13.252 26.0068 13.5742 26.1387 13.9551 26.1387C14.7168 26.1387 15.3027 25.5674 15.3027 24.8057C15.3027 24.4248 15.1416 24.1025 14.9072 23.8535L4.24316 13.4238L14.9072 2.99414C15.1416 2.74512 15.3027 2.4082 15.3027 2.04199C15.3027 1.28027 14.7168 0.708984 13.9551 0.708984C13.5742 0.708984 13.252 0.84082 13.0029 1.08984L1.38672 12.457C1.1084 12.7207 0.976562 13.0576 0.976562 13.4238Z" fill="white"/>
</svg>
