<svg width="16" height="27" viewBox="0 0 16 27" fill="none" xmlns="http://www.w3.org/2000/svg">
<path opacity="0.4" d="M15.0234 13.4238C15.0234 13.79 14.8916 14.1123 14.6133 14.3906L2.99707 25.7432C2.74805 26.0068 2.42578 26.1387 2.04492 26.1387C1.2832 26.1387 0.697266 25.5674 0.697266 24.8057C0.697266 24.4248 0.858398 24.1025 1.09277 23.8535L11.7568 13.4238L1.09277 2.99414C0.858398 2.74512 0.697266 2.4082 0.697266 2.04199C0.697266 1.28027 1.2832 0.708984 2.04492 0.708984C2.42578 0.708984 2.74805 0.84082 2.99707 1.08984L14.6133 12.457C14.8916 12.7207 15.0234 13.0576 15.0234 13.4238Z" fill="white"/>
</svg>
